<svg width="54" height="39" viewBox="0 0 54 39" fill="none" xmlns="http://www.w3.org/2000/svg">
<path fill-rule="evenodd" clip-rule="evenodd" d="M16.1719 3.73656C16.4706 3.22568 16.9866 2.82848 17.6947 2.53486C18.4033 2.24101 19.2401 2.07863 20.0713 2.00139C20.8967 1.92469 21.6779 1.93528 22.256 1.96596C22.5437 1.98123 22.7779 2.00129 22.9382 2.01728C23.0183 2.02527 23.0797 2.03222 23.1199 2.03701C23.14 2.0394 23.1548 2.04125 23.1639 2.04242L23.1733 2.04364L23.1744 2.04379C23.6978 2.11477 24.1792 1.74176 24.2495 1.21028C24.3198 0.678551 23.9524 0.189597 23.4287 0.11817L23.3014 1.08095C23.4287 0.11817 23.4287 0.11817 23.4287 0.11817L23.4275 0.118004L23.4257 0.117762L23.4204 0.117058L23.4032 0.114817C23.3888 0.112971 23.3685 0.110443 23.3428 0.107381C23.2914 0.101257 23.218 0.0929839 23.1253 0.083732C22.9399 0.0652426 22.6764 0.0427609 22.3558 0.0257519C21.7174 -0.0081272 20.84 -0.021008 19.897 0.0666164C18.9599 0.153695 17.9185 0.343436 16.9713 0.736211C16.0236 1.12922 15.1065 1.75316 14.5268 2.74465C14.2328 3.24746 13.9787 4.0284 13.7496 4.90244C13.5125 5.80718 13.2768 6.91531 13.0471 8.14129C12.62 10.4217 12.2057 13.1539 11.8378 15.8323C11.6838 15.8261 11.5289 15.8229 11.3733 15.8229C5.09199 15.8229 0 20.9937 0 27.3723C0 33.7509 5.09199 38.9217 11.3733 38.9217C17.6546 38.9217 22.7466 33.7509 22.7466 27.3723C22.7466 21.8166 18.8837 17.1772 13.7366 16.0726C13.9785 14.3125 14.2393 12.539 14.5092 10.8943C14.6149 10.8834 14.7352 10.8712 14.8693 10.8578C15.4443 10.8007 16.2717 10.7229 17.2783 10.6406C19.2927 10.4759 22.0189 10.2938 24.8736 10.2229C27.7335 10.152 30.6965 10.1934 33.1929 10.4691C34.4414 10.607 35.5504 10.8012 36.4606 11.0601C37.3862 11.3235 38.0286 11.6327 38.4097 11.9538C39.259 12.6695 39.9579 13.9793 40.4949 15.71C40.5331 15.8329 40.5702 15.9572 40.6063 16.0828C35.2889 17.051 31.2534 21.7722 31.2534 27.4506C31.2534 33.8291 36.3454 39 42.6267 39C48.908 39 54 33.8291 54 27.4506C54 21.072 48.908 15.9012 42.6267 15.9012C42.5991 15.9012 42.5715 15.9013 42.5439 15.9015C42.4733 15.6391 42.3986 15.3803 42.3197 15.126C41.7472 13.2812 40.9089 11.5352 39.6315 10.4587C39.1415 10.0458 38.5181 9.72265 37.8236 9.46459L41.6711 5.04148H45.4932C46.0215 5.04148 46.4498 4.60656 46.4498 4.07005C46.4498 3.53355 46.0215 3.09862 45.4932 3.09862L41.2397 3.09862L35.6918 3.09862C35.1635 3.09862 34.7352 3.53355 34.7352 4.07005C34.7352 4.60656 35.1635 5.04148 35.6918 5.04148H39.1183L35.7643 8.89729C35.0262 8.74727 34.2306 8.62943 33.3998 8.53767C30.7817 8.2485 27.7229 8.20878 24.8268 8.28067C21.9254 8.35269 19.1615 8.53749 17.1248 8.70399C16.2003 8.77956 15.4245 8.85146 14.8521 8.90754C14.8769 8.77158 14.9018 8.63715 14.9267 8.50435C15.1521 7.30073 15.378 6.24335 15.5985 5.40218C15.827 4.5303 16.0266 3.98493 16.1719 3.73656ZM11.5784 17.768C11.5102 17.7665 11.4418 17.7657 11.3733 17.7657C6.14864 17.7657 1.91323 22.0668 1.91323 27.3723C1.91323 32.6779 6.14864 36.9789 11.3733 36.9789C16.5979 36.9789 20.8334 32.6779 20.8334 27.3723C20.8334 22.8012 17.6894 18.9757 13.4775 18.0042C13.1653 20.3878 12.8969 22.6371 12.6977 24.3743C12.5802 25.399 12.4869 26.245 12.4229 26.8346C12.391 27.1293 12.3664 27.3599 12.3498 27.5167C12.3415 27.5951 12.3352 27.655 12.331 27.6952L12.3262 27.7407L12.325 27.7521L12.3247 27.7548C12.3247 27.7548 12.3246 27.7557 11.3733 27.654C10.4219 27.5523 10.422 27.552 10.422 27.552L10.4224 27.5481L10.4236 27.5363L10.4285 27.4897C10.4328 27.4488 10.4391 27.3881 10.4475 27.309C10.4643 27.1507 10.4891 26.9184 10.5212 26.6219C10.5855 26.0289 10.6793 25.1789 10.7973 24.1496C10.9967 22.4104 11.2655 20.1578 11.5784 17.768ZM11.3733 27.654L12.3247 27.7548C12.2694 28.2884 11.7986 28.6763 11.2731 28.6201C10.7477 28.5639 10.3667 28.0856 10.422 27.552L11.3733 27.654ZM41.5602 21.2944C41.4415 20.1903 41.2799 19.061 41.0619 17.9748C36.5819 18.7321 33.1667 22.6863 33.1667 27.4506C33.1667 32.7561 37.4021 37.0571 42.6267 37.0571C47.8514 37.0571 52.0868 32.7561 52.0868 27.4506C52.0868 22.268 48.0455 18.044 42.9884 17.8509C43.1956 18.9309 43.3487 20.0287 43.4621 21.0836C43.6742 23.0572 43.7504 24.9118 43.7739 26.2709C43.7856 26.9514 43.7842 27.5097 43.7798 27.8993C43.7775 28.0941 43.7746 28.2469 43.7722 28.3517C43.7709 28.4041 43.7699 28.4445 43.7691 28.4723L43.7681 28.5043L43.7678 28.513L43.7677 28.5155C43.7677 28.5155 43.7677 28.5167 42.8706 28.4855L43.7677 28.5167C43.7496 29.0529 43.3069 29.4727 42.7789 29.4543C42.2509 29.4359 41.8376 28.9864 41.8556 28.4503L41.8556 28.4489L41.8558 28.4427L41.8566 28.4158C41.8573 28.3915 41.8583 28.3547 41.8595 28.3059C41.8617 28.2084 41.8645 28.0635 41.8667 27.8769C41.8709 27.5036 41.8723 26.9642 41.861 26.305C41.8382 24.9847 41.7641 23.1921 41.5602 21.2944Z" fill="#F06314"/>
</svg>
