<svg width="54" height="45" viewBox="0 0 54 45" fill="none" xmlns="http://www.w3.org/2000/svg">
<path fill-rule="evenodd" clip-rule="evenodd" d="M18.8037 3.80214C19.2105 3.1161 19.8973 2.6104 20.7801 2.24943C21.6634 1.88828 22.6918 1.69386 23.6947 1.60197C24.693 1.51052 25.6349 1.5233 26.3298 1.55966C26.6762 1.57778 26.9587 1.60162 27.153 1.62073C27.2501 1.63028 27.325 1.63863 27.3747 1.64446C27.3995 1.64738 27.418 1.64966 27.4298 1.65115L27.4424 1.65277L27.4447 1.65306C27.8634 1.70916 28.2487 1.41498 28.3049 0.995765C28.3612 0.576419 28.0673 0.190807 27.6484 0.134477L27.5471 0.890081C27.6484 0.134477 27.6484 0.134477 27.6484 0.134477L27.6473 0.134331L27.6456 0.134097L27.6401 0.133373L27.6212 0.130953C27.6051 0.128928 27.5823 0.12611 27.5529 0.122667C27.4943 0.115781 27.4098 0.106387 27.3026 0.0958419C27.0883 0.0747624 26.7823 0.0490137 26.4097 0.0295165C25.6665 -0.00936835 24.6476 -0.0239508 23.5553 0.0761226C22.4676 0.175766 21.2756 0.391766 20.2015 0.830931C19.127 1.27028 18.1194 1.9548 17.4878 3.01988C17.1687 3.55799 16.8788 4.42383 16.608 5.44218C16.3309 6.48474 16.0541 7.76679 15.7834 9.19155C15.2817 11.8324 14.7945 14.998 14.361 18.1073C14.0584 18.0869 13.7531 18.0766 13.4453 18.0766C6.01969 18.0766 0 24.1036 0 31.5383C0 38.973 6.01969 45 13.4453 45C20.871 45 26.8907 38.973 26.8907 31.5383C26.8907 24.9359 22.1433 19.4436 15.8798 18.2967C16.1875 16.0908 16.5212 13.8653 16.8666 11.8267C17.0264 11.8943 17.2143 11.9751 17.4279 12.0695C17.5171 12.1089 17.6108 12.1507 17.7088 12.1949C18.6492 12.6186 19.9831 13.2592 21.5474 14.1233C24.6795 15.8535 28.7172 18.4695 32.3699 22.0191C35.029 24.6031 37.351 27.2315 39.2331 29.5361C37.4274 31.1591 36.2915 33.5142 36.2915 36.135C36.2915 41.031 40.2557 45 45.1457 45C50.0358 45 54 41.031 54 36.135C54 31.239 50.0358 27.27 45.1457 27.27C43.4237 27.27 41.8164 27.7622 40.4566 28.6138C38.8072 26.5914 36.8202 24.3182 34.5623 22.0363L39.6973 16.216H44.3806C44.8032 16.216 45.1457 15.873 45.1457 15.4499C45.1457 15.0268 44.8032 14.6838 44.3806 14.6838H39.3522H32.7935C32.3709 14.6838 32.0283 15.0268 32.0283 15.4499C32.0283 15.873 32.3709 16.216 32.7935 16.216H37.6554L33.4733 20.9562L33.4358 20.9196C29.6553 17.2459 25.4946 14.5538 22.2866 12.7818C20.6809 11.8947 19.3093 11.2358 18.3368 10.7976C17.8504 10.5785 17.4635 10.4144 17.1967 10.3046C17.1764 10.2962 17.1567 10.2881 17.1377 10.2804C17.1873 10.0079 17.237 9.74017 17.2868 9.47787C17.5541 8.07074 17.8231 6.82872 18.0869 5.8363C18.3572 4.81966 18.6036 4.13959 18.8037 3.80214ZM14.1524 19.6295C13.9184 19.6158 13.6827 19.6088 13.4453 19.6088C6.86488 19.6088 1.53036 24.9498 1.53036 31.5383C1.53036 38.1268 6.86488 43.4678 13.4453 43.4678C20.0258 43.4678 25.3603 38.1268 25.3603 31.5383C25.3603 25.7115 21.1879 20.8604 15.6714 19.8167C15.2588 22.8745 14.9046 25.7931 14.6478 28.0015C14.5088 29.1968 14.3984 30.1836 14.3227 30.8714C14.2849 31.2153 14.2558 31.4844 14.2361 31.6674C14.2318 31.7078 14.2279 31.7439 14.2245 31.7757C14.2202 31.8162 14.2166 31.8497 14.2138 31.876L14.2082 31.9291L14.2068 31.9425L14.2064 31.9458L14.2063 31.9466C14.2063 31.9466 14.2063 31.9468 13.4453 31.8666C12.6844 31.7864 12.6844 31.7861 12.6844 31.7861L12.6845 31.7852L12.6849 31.7817L12.6863 31.7679L12.692 31.7139C12.6971 31.6663 12.7046 31.5957 12.7145 31.5036C12.7343 31.3194 12.7636 31.049 12.8015 30.7037C12.8775 30.0132 12.9883 29.0232 13.1277 27.8243C13.3847 25.6143 13.7392 22.6931 14.1524 19.6295ZM13.4453 31.8666L14.2063 31.9466C14.1621 32.3674 13.7855 32.6728 13.3652 32.6285C12.945 32.5842 12.6402 32.2069 12.6844 31.7861L13.4453 31.8666ZM41.2039 32.031C40.8876 31.6169 40.5507 31.1827 40.1942 30.7319C38.7359 32.0723 37.8219 33.9968 37.8219 36.135C37.8219 40.1848 41.1009 43.4678 45.1457 43.4678C49.1906 43.4678 52.4696 40.1848 52.4696 36.135C52.4696 32.0852 49.1906 28.8022 45.1457 28.8022C43.7869 28.8022 42.5144 29.1727 41.4237 29.8184C41.775 30.263 42.1072 30.6913 42.4196 31.1003C43.4937 32.5066 44.3343 33.6863 44.9074 34.5158C45.194 34.9306 45.4137 35.258 45.5624 35.4826C45.6367 35.5949 45.6933 35.6814 45.7315 35.7404L45.7584 35.7818L45.7751 35.8079L45.7865 35.8256L45.7896 35.8305L45.7905 35.8318C45.7905 35.8318 45.7909 35.8325 45.1457 36.2444L45.7905 35.8318C46.0177 36.1886 45.9135 36.6629 45.5572 36.8904C45.2009 37.1179 44.7279 37.0131 44.5006 36.6564L44.5001 36.6556L44.4979 36.6522L44.4883 36.6372C44.4796 36.6236 44.4662 36.6029 44.4483 36.5753C44.4125 36.5201 44.3585 36.4374 44.2868 36.3291C44.1433 36.1124 43.9293 35.7934 43.6488 35.3874C43.0877 34.5753 42.2614 33.4156 41.2039 32.031Z" fill="#42B026"/>
</svg>
