<svg width="128" height="22" viewBox="0 0 128 22" fill="none" xmlns="http://www.w3.org/2000/svg">
<path d="M121.771 11.284C122.872 12.18 123.712 13.1787 124.291 14.28C124.888 15.3627 125.467 16.6973 126.027 18.284C126.494 19.572 126.867 20.4773 127.147 21H118.915C118.803 20.6827 118.654 20.132 118.467 19.348C118.28 18.4893 118.075 17.7707 117.851 17.192C117.646 16.6133 117.347 16.1093 116.955 15.68C116.32 15.008 115.527 14.5787 114.575 14.392C113.642 14.1867 112.354 14.084 110.711 14.084V21H103.739C103.888 17.3787 103.963 13.9907 103.963 10.836C103.963 7.68133 103.888 4.29333 103.739 0.671997H110.711V7.98C110.898 7.99866 111.178 8.008 111.551 8.008C114.463 5.13333 116.628 2.688 118.047 0.671997H127.119L118.411 9.352C119.643 9.83733 120.763 10.4813 121.771 11.284Z" fill="#FF833E"/>
<path d="M84.3085 0.699951L83.8325 16.408L90.6365 0.699951H100.94C100.81 3.85462 100.744 7.23329 100.744 10.836C100.744 14.4573 100.81 17.8453 100.94 21H93.7445L94.2485 5.71196L87.4725 21H77.4485C77.5979 17.3787 77.6725 13.9907 77.6725 10.836C77.6725 7.69996 77.5979 4.32129 77.4485 0.699951H84.3085Z" fill="#FF833E"/>
<path d="M74.6408 21H67.5568V6.16H61.2848L61.2568 7.784C61.2568 9.20266 61.2194 10.4533 61.1448 11.536C61.0888 12.6 60.9581 13.692 60.7528 14.812C60.3794 16.8467 59.4274 18.48 57.8968 19.712C56.3848 20.944 54.2661 21.56 51.5408 21.56V16.1C52.2688 15.9507 52.8381 15.624 53.2488 15.12C53.6781 14.5973 54.0048 13.7667 54.2288 12.628C54.3968 11.7133 54.4808 9.632 54.4808 6.384L54.4528 0.671997L74.6408 0.699996V21Z" fill="#FF833E"/>
<path d="M33.3075 15.876C40.4009 15.8387 45.5435 15.736 48.7355 15.568C48.6049 16.3333 48.5209 17.1267 48.4835 17.948C48.4649 18.7507 48.4555 19.768 48.4555 21H26.6995C26.8489 17.3787 26.9235 13.9907 26.9235 10.836C26.9235 7.68133 26.8489 4.29333 26.6995 0.671997H48.4555V5.74H33.3075V8.428C34.2035 8.44666 35.5289 8.456 37.2835 8.456C40.2515 8.456 43.3222 8.4 46.4955 8.288V13.104C43.3222 12.992 40.2515 12.936 37.2835 12.936C35.5289 12.936 34.2035 12.9453 33.3075 12.964V15.876Z" fill="#FF833E"/>
<path d="M17.5279 10.892C21.7839 10.892 23.9119 12.2453 23.9119 14.952C23.9119 16.2213 23.6226 17.304 23.0439 18.2C22.4652 19.0773 21.4292 19.768 19.9359 20.272C18.4426 20.7573 16.3706 21 13.7199 21H1.11987C1.26921 17.3787 1.34387 13.9907 1.34387 10.836C1.34387 7.68133 1.26921 4.29333 1.11987 0.671997H7.69988V0.699996H13.6639C15.9786 0.699996 17.7986 0.895996 19.1239 1.288C20.4679 1.66133 21.4106 2.212 21.9519 2.94C22.5119 3.668 22.7919 4.592 22.7919 5.712C22.7919 6.85066 22.3906 7.868 21.5879 8.764C20.8039 9.64133 19.4506 10.3507 17.5279 10.892ZM7.69988 5.796V8.4H13.0759C14.2332 8.4 15.0359 8.29733 15.4839 8.092C15.9506 7.88666 16.1839 7.51333 16.1839 6.972C16.1839 6.54266 15.9412 6.244 15.4559 6.076C14.9892 5.88933 14.1959 5.796 13.0759 5.796H7.69988ZM13.0759 15.876C14.0466 15.876 14.7839 15.8387 15.2879 15.764C15.8106 15.6707 16.1839 15.5213 16.4079 15.316C16.6319 15.092 16.7439 14.7933 16.7439 14.42C16.7439 13.9347 16.4732 13.5893 15.9319 13.384C15.4092 13.16 14.4572 13.048 13.0759 13.048H7.69988V15.876H13.0759Z" fill="#FF833E"/>
</svg>
